<?xml version="1.0" encoding="UTF-8" standalone="no"?>
<!-- Created with Inkscape (http://www.inkscape.org/) -->

<svg
   xmlns:dc="http://purl.org/dc/elements/1.1/"
   xmlns:cc="http://creativecommons.org/ns#"
   xmlns:rdf="http://www.w3.org/1999/02/22-rdf-syntax-ns#"
   xmlns:svg="http://www.w3.org/2000/svg"
   xmlns="http://www.w3.org/2000/svg"
   xmlns:sodipodi="http://sodipodi.sourceforge.net/DTD/sodipodi-0.dtd"
   xmlns:inkscape="http://www.inkscape.org/namespaces/inkscape"
   width="5.3141599mm"
   height="4.7624998mm"
   viewBox="0 0 5.3141599 4.7624998"
   version="1.1"
   id="svg11654"
   inkscape:version="0.92.4 (5da689c313, 2019-01-14)"
   sodipodi:docname="facets.svg">
  <defs
     id="defs11648" />
  <sodipodi:namedview
     id="base"
     pagecolor="#ffffff"
     bordercolor="#666666"
     borderopacity="1.0"
     inkscape:pageopacity="0.0"
     inkscape:pageshadow="2"
     inkscape:zoom="15.839192"
     inkscape:cx="12.835807"
     inkscape:cy="-2.4440278"
     inkscape:document-units="mm"
     inkscape:current-layer="layer1"
     showgrid="false"
     fit-margin-top="0"
     fit-margin-left="0"
     fit-margin-right="0"
     fit-margin-bottom="0"
     inkscape:window-width="1920"
     inkscape:window-height="1017"
     inkscape:window-x="1358"
     inkscape:window-y="-8"
     inkscape:window-maximized="1" />
  <metadata
     id="metadata11651">
    <rdf:RDF>
      <cc:Work
         rdf:about="">
        <dc:format>image/svg+xml</dc:format>
        <dc:type
           rdf:resource="http://purl.org/dc/dcmitype/StillImage" />
        <dc:title></dc:title>
      </cc:Work>
    </rdf:RDF>
  </metadata>
  <g
     inkscape:label="Layer 1"
     inkscape:groupmode="layer"
     id="layer1"
     transform="translate(-5.4806548,-109.56475)">
    <g
       id="g11646"
       transform="matrix(0.18383856,0,0,0.18383856,3.6869672,107.35869)"
       style="fill:#172e49;fill-opacity:1">
      <path
         d="M 28,20 H 9.7568626 v 4 H 28 Z m 0,-8 H 9.7568626 v 4 H 28 Z M 9.7568626,32 H 20 V 28 H 9.7568626 Z"
         id="path11642"
         inkscape:connector-curvature="0"
         sodipodi:nodetypes="ccccccccccccccc"
         style="fill:#172e49;fill-opacity:1" />
      <path
         inkscape:connector-curvature="0"
         d="m 30.723529,25.905882 c -5.06,0 -8.06,6 -8.06,6 0,0 3,6 8.06,6 4.94,0 7.94,-6 7.94,-6 0,0 -3,-6 -7.94,-6 z m -0.06,2 c 2.22,0 4,1.8 4,4 0,2.22 -1.78,4 -4,4 -2.2,0 -4,-1.78 -4,-4 0,-2.2 1.8,-4 4,-4 z m 0,2 c -1.1,0 -2,0.9 -2,2 0,1.1 0.9,2 2,2 1.1,0 2,-0.9 2,-2 0,-0.2 -0.08,-0.38 -0.12,-0.56 -0.16,0.32 -0.48,0.56 -0.88,0.56 -0.56,0 -1,-0.44 -1,-1 0,-0.4 0.24,-0.72 0.56,-0.88 -0.18,-0.06 -0.36,-0.12 -0.56,-0.12 z"
         id="path11644"
         style="fill:#172e49;fill-opacity:1;stroke-width:2" />
    </g>
    <g
       style="fill:#172e49;fill-opacity:1"
       transform="matrix(0.18383856,0,0,0.18383856,3.6869672,107.35869)"
       id="g3946">
      <path
         style="fill:#172e49;fill-opacity:1;stroke-width:2"
         id="path3944"
         d="m 30.723529,25.905882 c -5.06,0 -8.06,6 -8.06,6 0,0 3,6 8.06,6 4.94,0 7.94,-6 7.94,-6 0,0 -3,-6 -7.94,-6 z m -0.06,2 c 2.22,0 4,1.8 4,4 0,2.22 -1.78,4 -4,4 -2.2,0 -4,-1.78 -4,-4 0,-2.2 1.8,-4 4,-4 z m 0,2 c -1.1,0 -2,0.9 -2,2 0,1.1 0.9,2 2,2 1.1,0 2,-0.9 2,-2 0,-0.2 -0.08,-0.38 -0.12,-0.56 -0.16,0.32 -0.48,0.56 -0.88,0.56 -0.56,0 -1,-0.44 -1,-1 0,-0.4 0.24,-0.72 0.56,-0.88 -0.18,-0.06 -0.36,-0.12 -0.56,-0.12 z"
         inkscape:connector-curvature="0" />
    </g>
  </g>
</svg>
